# Blender 4.3.0
# www.blender.org
mtllib model_0.mtl
o model_0
v 0.500000 0.500000 0.125631
v -0.500000 0.500000 0.125631
v -0.500000 0.500000 -0.125631
v 0.500000 0.500000 -0.125631
v 0.500000 -0.500000 -0.125631
v -0.500000 0.500000 -0.125631
v -0.500000 -0.500000 -0.125631
v -0.500000 -0.500000 -0.125631
v -0.500000 0.500000 -0.125631
v -0.500000 0.500000 0.125631
v -0.500000 -0.500000 0.125631
v -0.500000 -0.500000 0.125631
v 0.500000 -0.500000 0.125631
v -0.500000 -0.500000 -0.125631
vn -0.0000 -1.0000 -0.0000
vn -0.5773 -0.5773 0.5774
vn -0.5773 -0.5774 -0.5774
vn -0.0000 -0.0000 1.0000
vn -0.5773 0.5774 0.5774
vn 1.0000 -0.0000 -0.0000
vn 0.7071 -0.0000 -0.7071
vn -0.5773 0.5773 -0.5774
vn -0.0000 1.0000 -0.0000
vt 2.009022 0.002922
vt 1.006288 1.005656
vt 1.006288 0.002922
vt 0.003555 2.008389
vt 0.003555 1.005656
vt 1.006288 -2.002545
vt 0.003555 -0.999812
vt 0.003555 -2.002545
vt 0.003555 0.002922
vt -0.999178 1.005656
vt -0.999178 0.002922
vt 1.006288 -0.999812
vt 2.009022 1.005656
vt 1.006288 2.008389
s 1
f 2/1/1 4/2/2 1/3/3
f 4/2/2 7/4/4 5/5/5
f 9/6/6 11/7/7 8/8/6
f 13/9/8 14/10/9 12/11/9
f 1/3/3 5/5/5 13/9/8
f 13/9/8 10/12/7 1/3/3
f 2/1/1 3/13/1 4/2/2
f 4/2/2 6/14/4 7/4/4
f 9/6/6 10/12/7 11/7/7
f 13/9/8 5/5/5 14/10/9
f 1/3/3 4/2/2 5/5/5
f 13/9/8 11/7/7 10/12/7
